<?xml version="1.0" standalone="no"?><!DOCTYPE svg PUBLIC "-//W3C//DTD SVG 1.1//EN" "http://www.w3.org/Graphics/SVG/1.1/DTD/svg11.dtd"><svg t="1660288019344" class="icon" viewBox="0 0 1027 1024" version="1.1" xmlns="http://www.w3.org/2000/svg" p-id="2386" xmlns:xlink="http://www.w3.org/1999/xlink" width="200.5859375" height="200"><defs><style type="text/css">@font-face { font-family: feedback-iconfont; src: url("//at.alicdn.com/t/font_1031158_u69w8yhxdu.woff2?t=1630033759944") format("woff2"), url("//at.alicdn.com/t/font_1031158_u69w8yhxdu.woff?t=1630033759944") format("woff"), url("//at.alicdn.com/t/font_1031158_u69w8yhxdu.ttf?t=1630033759944") format("truetype"); }
</style></defs><path d="M983.838803 313.362669A511.938806 511.938806 0 1 0 1023.96018 512.025787a508.619448 508.619448 0 0 0-40.121377-198.663118z m-58.751651 372.475902A448.143324 448.143324 0 1 1 960.164699 512.025787a445.132975 445.132975 0 0 1-35.077547 173.812784z" p-id="2387"></path><path d="M609.289548 346.267183a31.897741 31.897741 0 1 0-31.897741 55.222964 127.590964 127.590964 0 1 1-127.590964 0 31.897741 31.897741 0 1 0-31.897741-55.222964A191.326637 191.326637 0 0 0 322.20988 512.025787c0 105.531682 85.854763 191.386446 191.386445 191.386446s191.386446-85.854763 191.386446-191.386446a191.326637 191.326637 0 0 0-95.693223-165.758604z" p-id="2388"></path><path d="M513.596325 512.025787a31.897741 31.897741 0 0 0 31.897741-31.897741V288.741601a31.897741 31.897741 0 0 0-63.795482 0v191.386445a31.897741 31.897741 0 0 0 31.897741 31.897741z" p-id="2389"></path></svg>