<?xml version="1.0" standalone="no"?><!DOCTYPE svg PUBLIC "-//W3C//DTD SVG 1.1//EN" "http://www.w3.org/Graphics/SVG/1.1/DTD/svg11.dtd"><svg t="1660288030393" class="icon" viewBox="0 0 1024 1024" version="1.1" xmlns="http://www.w3.org/2000/svg" p-id="2808" xmlns:xlink="http://www.w3.org/1999/xlink" width="200" height="200"><defs><style type="text/css">@font-face { font-family: feedback-iconfont; src: url("//at.alicdn.com/t/font_1031158_u69w8yhxdu.woff2?t=1630033759944") format("woff2"), url("//at.alicdn.com/t/font_1031158_u69w8yhxdu.woff?t=1630033759944") format("woff"), url("//at.alicdn.com/t/font_1031158_u69w8yhxdu.ttf?t=1630033759944") format("truetype"); }
</style></defs><path d="M959.063415 831.188293c0 17.655758-14.313022 31.96878-31.968781 31.96878H95.906341c-17.655758 0-31.96878-14.313022-31.96878-31.96878V191.812683c0-17.655758 14.313022-31.96878 31.96878-31.968781h831.188293c17.655758 0 31.96878 14.313022 31.968781 31.968781v639.37561z m-71.929756-447.562927H135.867317v407.601951h751.266342V383.625366z m-603.127009 60.225186l146.934509 146.934509a7.992195 7.992195 0 0 1 0 11.302962l-39.205713 39.206713-0.007992 0.006993-107.720804 107.720804a7.992195 7.992195 0 0 1-11.301963 0l-33.908886-33.906888a7.992195 7.992195 0 0 1 0-11.302962l107.375141-107.375142-107.375141-107.375141a7.992195 7.992195 0 0 1 0-11.303961l33.908886-33.906888a7.992195 7.992195 0 0 1 11.301963 0zM823.196098 575.438049a7.992195 7.992195 0 0 1 7.992195 7.992195v47.953171a7.992195 7.992195 0 0 1-7.992195 7.992195H583.430244a7.992195 7.992195 0 0 1-7.992195-7.992195v-47.953171a7.992195 7.992195 0 0 1 7.992195-7.992195h239.765854z m63.937561-343.66439H135.867317v87.914146h751.266342v-87.914146z" p-id="2809"></path></svg>