<?xml version="1.0" standalone="no"?><!DOCTYPE svg PUBLIC "-//W3C//DTD SVG 1.1//EN" "http://www.w3.org/Graphics/SVG/1.1/DTD/svg11.dtd"><svg t="1660288034166" class="icon" viewBox="0 0 1024 1024" version="1.1" xmlns="http://www.w3.org/2000/svg" p-id="2947" xmlns:xlink="http://www.w3.org/1999/xlink" width="200" height="200"><defs><style type="text/css">@font-face { font-family: feedback-iconfont; src: url("//at.alicdn.com/t/font_1031158_u69w8yhxdu.woff2?t=1630033759944") format("woff2"), url("//at.alicdn.com/t/font_1031158_u69w8yhxdu.woff?t=1630033759944") format("woff"), url("//at.alicdn.com/t/font_1031158_u69w8yhxdu.ttf?t=1630033759944") format("truetype"); }
</style></defs><path d="M281.6 224a6.4 6.4 0 0 0-6.4 6.4v563.2c0 3.5328 2.8672 6.4 6.4 6.4h243.2a19.2 19.2 0 0 1 0 38.4H281.6A44.8 44.8 0 0 1 236.8 793.6V230.4c0-24.7296 20.0704-44.8 44.8-44.8h366.336l139.264 139.264V486.4a19.2 19.2 0 0 1-38.4 0v-134.4h-128v-128H281.6z m377.6 27.136v62.464h62.464l-62.464-62.464zM729.6 716.8a25.6 25.6 0 1 0 0-51.2 25.6 25.6 0 0 0 0 51.2z" p-id="2948"></path><path d="M729.6 540.7488l134.4 81.4592v137.984l-134.4 81.4592-134.4-81.4592v-137.984l134.4-81.4592z m-96 103.0912v94.72l96 58.1888 96-58.1888v-94.72l-96-58.1888-96 58.1888zM466.3296 308.736c18.688-5.2736 38.272-2.9952 50.7392 0.384a19.2 19.2 0 0 1-10.1376 37.0432c-8.0128-2.176-20.1728-3.2768-30.1568-0.4608-8.6016 2.4576-15.2064 7.3984-17.6384 19.3536-1.3824 6.7584-2.9696 15.4368-4.7104 25.344h57.1648a19.0208 19.0208 0 0 1 10.496 2.8672 19.2768 19.2768 0 0 1 7.2704 8.1152l13.4912 27.008 32.384-32.3584a19.2 19.2 0 1 1 27.136 27.136l-41.3952 41.4208 19.4048 38.8352a19.2 19.2 0 1 1-34.3552 17.152l-13.696-27.3664-32.3584 32.3584a19.2 19.2 0 1 1-27.136-27.136l41.3952-41.4208-14.08-28.2112h-52.224l-4.0704 24.4224-0.4608 2.8928c-5.7344 34.8672-11.4944 69.5808-15.0528 85.632a19.2 19.2 0 1 1-37.4784-8.2944c3.2512-14.7456 8.7808-48.0512 14.6432-83.584l3.4816-21.0688H384a19.2 19.2 0 0 1 0-38.4h31.4368c2.2528-12.9536 4.3264-24.3712 6.0672-32.9728 5.76-28.3392 24.7808-43.008 44.8-48.6656z" p-id="2949"></path></svg>