<?xml version="1.0" standalone="no"?><!DOCTYPE svg PUBLIC "-//W3C//DTD SVG 1.1//EN" "http://www.w3.org/Graphics/SVG/1.1/DTD/svg11.dtd"><svg t="1660286042684" class="icon" viewBox="0 0 1024 1024" version="1.1" xmlns="http://www.w3.org/2000/svg" p-id="2152" xmlns:xlink="http://www.w3.org/1999/xlink" width="200" height="200"><defs><style type="text/css">@font-face { font-family: feedback-iconfont; src: url("//at.alicdn.com/t/font_1031158_u69w8yhxdu.woff2?t=1630033759944") format("woff2"), url("//at.alicdn.com/t/font_1031158_u69w8yhxdu.woff?t=1630033759944") format("woff"), url("//at.alicdn.com/t/font_1031158_u69w8yhxdu.ttf?t=1630033759944") format("truetype"); }
</style></defs><path d="M416 298.666667c-17.066667 0-32 14.933333-32 32v106.666666c0 17.066667 14.933333 32 32 32s32-14.933333 32-32v-106.666666c0-17.066667-14.933333-32-32-32zM597.333333 330.666667v106.666666c0 17.066667 14.933333 32 32 32s32-14.933333 32-32v-106.666666c0-17.066667-14.933333-32-32-32s-32 14.933333-32 32zM789.333333 469.333333c-106.666667 0-192 85.333333-192 192s85.333333 192 192 192 192-85.333333 192-192-85.333333-192-192-192z m-128 93.866667c25.6 4.266667 61.866667 14.933333 87.466667 42.666667-10.666667 10.666667-19.2 21.333333-25.6 36.266666-17.066667-19.2-42.666667-29.866667-61.866667-34.133333v-44.8z m192 204.8v-23.466667c-19.2-2.133333-49.066667-8.533333-74.666666-25.6 6.4-10.666667 12.8-21.333333 17.066666-32 0-2.133333 2.133333-4.266667 2.133334-4.266666 17.066667 12.8 38.4 19.2 53.333333 21.333333v-21.333333l64 42.666666-61.866667 42.666667z m0-128v-14.933333c-23.466667 2.133333-61.866667 14.933333-76.8 53.333333-21.333333 59.733333-81.066667 78.933333-115.2 85.333333v-42.666666c25.6-6.4 61.866667-21.333333 76.8-55.466667 23.466667-61.866667 83.2-76.8 115.2-81.066667V554.666667l64 42.666666-64 42.666667z" p-id="2153"></path><path d="M533.333333 661.333333c0-36.266667 8.533333-70.4 21.333334-102.4V277.333333c0-23.466667 19.2-42.666667 42.666666-42.666666h64c23.466667 0 42.666667 19.2 42.666667 42.666666v142.933334c21.333333-6.4 42.666667-12.8 64-12.8V256c0-46.933333-38.4-85.333333-85.333333-85.333333H128c-46.933333 0-85.333333 38.4-85.333333 85.333333v512c0 46.933333 38.4 85.333333 85.333333 85.333333h492.8c-53.333333-46.933333-87.466667-115.2-87.466667-192zM181.333333 405.333333c-17.066667 0-32-14.933333-32-32S164.266667 341.333333 181.333333 341.333333s32 14.933333 32 32S198.4 405.333333 181.333333 405.333333z m0-106.666666c-17.066667 0-32-14.933333-32-32S164.266667 234.666667 181.333333 234.666667s32 14.933333 32 32S198.4 298.666667 181.333333 298.666667zM490.666667 746.666667c0 23.466667-19.2 42.666667-42.666667 42.666666h-64c-23.466667 0-42.666667-19.2-42.666667-42.666666V277.333333c0-23.466667 19.2-42.666667 42.666667-42.666666h64c23.466667 0 42.666667 19.2 42.666667 42.666666v469.333334z" p-id="2154"></path></svg>