<?xml version="1.0" standalone="no"?><!DOCTYPE svg PUBLIC "-//W3C//DTD SVG 1.1//EN" "http://www.w3.org/Graphics/SVG/1.1/DTD/svg11.dtd"><svg t="1660288026941" class="icon" viewBox="0 0 1024 1024" version="1.1" xmlns="http://www.w3.org/2000/svg" p-id="2666" xmlns:xlink="http://www.w3.org/1999/xlink" width="200" height="200"><defs><style type="text/css">@font-face { font-family: feedback-iconfont; src: url("//at.alicdn.com/t/font_1031158_u69w8yhxdu.woff2?t=1630033759944") format("woff2"), url("//at.alicdn.com/t/font_1031158_u69w8yhxdu.woff?t=1630033759944") format("woff"), url("//at.alicdn.com/t/font_1031158_u69w8yhxdu.ttf?t=1630033759944") format("truetype"); }
</style></defs><path d="M54.139985 341.303229c-5.837322 0-11.625473-2.533821-15.592283-7.418829-6.986322-8.604958-5.674756-21.24396 2.929198-28.231285l260.065403-211.178206c8.601947-6.986322 21.24396-5.676763 28.232289 2.928195 6.986322 8.604958 5.674756 21.244963-2.929198 28.232289L66.779991 336.813598a19.9916 19.9916 0 0 1-12.640006 4.489631zM581.019287 341.303229c-5.837322 0-11.625473-2.533821-15.592284-7.418829-6.986322-8.604958-5.674756-21.24396 2.929198-28.231285L828.422608 94.474909c8.604958-6.986322 21.24396-5.676763 28.232289 2.928195 6.987326 8.604958 5.674756 21.244963-2.929198 28.232289L593.659292 336.813598a19.9916 19.9916 0 0 1-12.640005 4.489631z" p-id="2667"></path><path d="M575.165909 336.608885a19.989593 19.989593 0 0 1-12.562737-4.428417L305.546243 125.521998c-8.638073-6.945179-10.011856-19.57816-3.066677-28.217237 6.944176-8.638073 19.57816-10.012859 28.216233-3.066676L587.753732 300.897558c8.638073 6.945179 10.011856 19.57816 3.066677 28.217237-3.9638 4.931168-9.783059 7.49409-15.6545 7.49409zM876.558189 89.918045c-1.187133 0-2.388315-0.105367-3.596521-0.323125L674.208721 53.637737c-10.906972-1.972868-18.149185-12.415223-16.176317-23.322195 1.973872-10.907976 12.42024-18.148182 23.322195-16.176317l198.752947 35.957183c10.906972 1.972868 18.149185 12.415223 16.176317 23.322195-1.75511 9.698766-10.206533 16.499442-19.725674 16.499442z" p-id="2668"></path><path d="M885.844519 312.093537c-10.781535 0-19.692559-8.558797-20.047795-19.414591l-6.495614-198.748934c-0.362261-11.078569 8.324983-20.352857 19.403552-20.715118 11.12172-0.360254 20.352857 8.325986 20.715119 19.403552l6.495614 198.748934c0.362261 11.078569-8.324983 20.352857-19.403553 20.715118-0.223779 0.007024-0.446555 0.011038-0.667323 0.011039zM774.358386 517.214655H57.666262c-11.08459 0-20.069872-8.985282-20.069872-20.069873s8.985282-20.069872 20.069872-20.069872h716.692124c11.08459 0 20.069872 8.985282 20.069873 20.069872s-8.985282 20.069872-20.069873 20.069873zM500.097562 805.76021c-26.461123 0-40.918455-6.557831-52.535901-11.827176-10.152345-4.605032-18.170259-8.242696-35.954172-8.242696s-25.801828 3.637664-35.954173 8.242696c-11.616442 5.269345-26.073774 11.827176-52.536904 11.827176-26.460119 0-40.916448-6.557831-52.533894-11.827176-10.150338-4.605032-18.168252-8.242696-35.951162-8.242696-17.780903 0-25.798817 3.637664-35.949155 8.241693-11.616442 5.270348-26.072771 11.828179-52.533894 11.828179s-40.916448-6.557831-52.533894-11.828179c-10.150338-4.604029-18.168252-8.241693-35.950158-8.241693-11.08459 0-20.069872-8.985282-20.069872-20.069872s8.985282-20.069872 20.069872-20.069872c26.460119 0 40.916448 6.557831 52.533894 11.828179 10.150338 4.605032 18.169255 8.241693 35.950158 8.241693 17.781907 0 25.799821-3.637664 35.950159-8.241693 11.616442-5.269345 26.071767-11.828179 52.53289-11.828179s40.917452 6.557831 52.534898 11.828179c10.150338 4.605032 18.168252 8.241693 35.950158 8.241693 17.784917 0 25.802831-3.637664 35.955176-8.242697 11.616442-5.269345 26.073774-11.827176 52.535901-11.827175s40.918455 6.557831 52.535901 11.827175c10.152345 4.605032 18.170259 8.242696 35.954172 8.242697 11.08459 0 20.069872 8.985282 20.069872 20.069872s-8.985282 20.069872-20.069872 20.069872zM862.060717 643.050746l95.196421 164.887045-95.196421 164.885038H671.664864l-95.196421-164.886041 95.196421-164.885039h190.395853m23.173678-40.140747h-236.744212L530.119081 807.935784l118.371102 205.025786h236.744212l118.371103-205.024782-118.371103-205.025786z" p-id="2669"></path><path d="M766.859279 913.84751c-58.398311 0-105.909719-47.511408-105.909719-105.911726S708.460968 702.024058 766.859279 702.024058c58.400318 0 105.913733 47.511408 105.913733 105.911726S825.2606 913.84751 766.859279 913.84751z m0-171.683707c-36.266259 0-65.769975 29.504719-65.769975 65.771981s29.503716 65.771982 65.769975 65.771982c36.268266 0 65.773989-29.504719 65.773988-65.771982s-29.505723-65.771982-65.773988-65.771981z" p-id="2670"></path></svg>