<?xml version="1.0" standalone="no"?><!DOCTYPE svg PUBLIC "-//W3C//DTD SVG 1.1//EN" "http://www.w3.org/Graphics/SVG/1.1/DTD/svg11.dtd"><svg t="1660288039225" class="icon" viewBox="0 0 1024 1024" version="1.1" xmlns="http://www.w3.org/2000/svg" p-id="3087" xmlns:xlink="http://www.w3.org/1999/xlink" width="200" height="200"><defs><style type="text/css">@font-face { font-family: feedback-iconfont; src: url("//at.alicdn.com/t/font_1031158_u69w8yhxdu.woff2?t=1630033759944") format("woff2"), url("//at.alicdn.com/t/font_1031158_u69w8yhxdu.woff?t=1630033759944") format("woff"), url("//at.alicdn.com/t/font_1031158_u69w8yhxdu.ttf?t=1630033759944") format("truetype"); }
</style></defs><path d="M512.275957 90.714489a421.46112 421.46112 0 1 1-421.46112 421.46112 421.912686 421.912686 0 0 1 421.46112-421.46112m0-80.278309a501.739429 501.739429 0 1 0 501.739428 501.739429 501.739429 501.739429 0 0 0-501.739428-501.739429z" fill="#999999" p-id="3088"></path><path d="M370.233524 655.22152c0 39.687589 28.147582 55.99412 62.717429 36.024891l247.608408-143.045911a38.082023 38.082023 0 0 0 0-72.099956L432.800431 333.004459c-34.419325-20.069577-62.717429-3.612524-62.717428 36.075065 0.150522 0.301044 0.150522 286.141996 0.150521 286.141996z" fill="#999899" p-id="3089"></path></svg>